<svg xmlns="http://www.w3.org/2000/svg" width="391.57" height="428.98" viewBox="0 0 391.57 428.98"><title>Asset 3</title><path d="M389.7,1.41c-1.49-2.13-3.61-1.34-5.41-.89a27.23,27.23,0,0,1-6.39,1c-30.08.3-60.16.66-90.24.92-19.43.16-38.89-.39-58.29.46-15.86.71-31.72.68-47.57,1.22-8.11.27-16.29,1.21-24.33,1-11.08-.27-22.18.23-33.1,1-11.5.85-23,.34-34.57,1.86S66.41,9.91,54.69,10.47h0a49,49,0,0,0-12,.85l-3,.09a4.8,4.8,0,0,1-1.67.53,8.11,8.11,0,0,1,1.67-.53l-30,0a8.27,8.27,0,0,0-5-.08C.31,11.61-.12,14.76,0,18.07.5,28.85,1.1,39.62,1.65,50.4c2.07,8.4.66,17.06,1.91,25.52,2.31,15.58,2,31.28,1.6,46.94-.21,7.88,1.17,15.68.51,23.54v3c-3.55,4.36.51,8.64.15,13-.46,7,0,14.06-1.21,21-1,3.52.3,6.86,1.06,10.15,1.28,5.56-.83,10.83-.94,16.28-.13,6.79,1.33,13.52.9,20.13-.74,11.54.58,23,.07,34.54-.46,10.43-.4,21-.3,31.51.15,16.13.38,32.33-1.87,48.39,0,17.34.07,34.68-1,52-.09,3.69.92,7.47-.82,11v0C.05,411.71,2,414.27,5.8,416c2.86,1.25,5.74,2.4,8.94,2.27l-.07.34a2.58,2.58,0,0,0,1.87.2,2.81,2.81,0,0,1,.51-.48l2.4.07a3.32,3.32,0,0,0,2.17.54c2.17.15,4.38-.35,6.51.41l.27-.21.3.16c13.55-1.28,27.14-.65,40.71-1,3.26-1,6.62-.5,9.92-.59,33.65-.9,67.28-2.22,101-2.25,37.83-.05,75.62,1.16,113.34,4,14.43,1.09,28.89,1.75,43.23,3.78l.57.72c6.41,1.65,13,1.67,19.54,2.42,7.53.87,15,2,22.6,2.55,5,.38,6.49-1.26,6.57-6.16a6.25,6.25,0,0,1-.4-.5,1.06,1.06,0,0,0-.25-1.8c-1.49-1.72-.92-3.8-.93-5.74,0-30.48.05-61-.89-91.42-.46-15-.73-29.94-1.08-44.91a1.83,1.83,0,0,0,0-2.93l-.69-2h0c.06-2,.21-4,.17-6-1.13-57.72-1.73-115.44,2.86-173,.86-10.75.9-21.58,2.72-32.25a229.53,229.53,0,0,1,2.13-25.79c.52-8,.93-16.09,1.59-24.12C391.65,8.47,392,4.77,389.7,1.41ZM377.54,203.67h0Zm1.89-189.48c.19,11.77-1.24,23.5-1.27,35.29a108.88,108.88,0,0,1-1.59,15.76c-.39,5.61-.24,11.24-1.54,16.79a20.62,20.62,0,0,0-.72,8.41c1.69,9.49-1.44,18.8-.88,28.24a23.83,23.83,0,0,1-.28,2.48l-1,17.11a9.26,9.26,0,0,1,0,1.16c-1,12.77-1,25.58-1.12,38.36-.29,27.14,0,54.27.44,81.4,1.09,3.38.64,6.87.79,10.33.32,7.69-1.56,15.53,1.45,23.07a3.91,3.91,0,0,0,.91,1c-2.61,1.6-2,4.24-1.94,6.77.05,8.64,1.48,17.23.91,25.89-.55,2.39-1,4.78-.16,7.2,1,2.68,1.86,5.37.79,8.24.11,9.67-1.19,19.34,0,29,.2,4.61-1.19,9.35.46,13.84a7.74,7.74,0,0,1-.49,1.16,165.4,165.4,0,0,0-1,25.36c.14,4.12-1.66,5.27-5.34,5.11-4.67-.2-9.24-1.5-13.83-1.71-10.8-.48-21.52-1.95-32.37-1.8-10.14.14-20.15-2.22-30.31-2.46-17.28-.41-34.5-1.95-51.79-2.41-13.29-.36-26.63-.51-39.9-.56-12.75,0-25.59-.16-38.38.44-4.8.23-9.5-1.54-14.39-1-16.72,2-33.55,1.88-50.32,1.86-4.77,0-9.39,1.5-14.13.75a9.52,9.52,0,0,0-1.68-.29c-6.25.83-12.48-.2-18.71-.27-8.68-.11-17.34.9-26.06.15-3.23-.28-7-1.09-10,1.34l-.37,0c.1-.24.22-.48.32-.74C24.8,408,23.08,408,21.47,408c-2.82.16-4.25-1.2-4.81-3.78-1-5.19-.32-10.44-.48-15.66.62-15.28.31-30.56.13-45.84-.24-20.78-.44-41.55.11-62.32.2-15.68.15-31.34,0-47,.14-11.09-1.22-22.11-1.05-33.21.25-16.07.53-32.15-.22-48.22-.45-2.14-1.28-4.23-.66-6.46a3.09,3.09,0,0,0-.4-1.58,14.51,14.51,0,0,1,1-2.4l.1-26.61a14.05,14.05,0,0,1-.05-2.43c.05-1.27.06-2.55.07-3.82v-.24h0C15.33,94.2,13.48,80,14.13,65.73a20,20,0,0,0-.12-3A331.2,331.2,0,0,1,12.46,27c0-3.31,1.32-4.62,4.71-4.87,8.29-.61,16.57-1.13,24.89-1,2.47.05,5,.24,7.25-1.27.34-.38.72-.89.5-1.31h0l.22,0c3.79,2.68,8,1.71,12.1,1.3,23-2.34,46.15-3.5,69.25-4.57,23.28-1.07,46.6-1.34,69.89-1.87q36.47-.84,72.94-1.14c28.63-.25,57.25,1.45,85.88.57,6.79-.21,13.6,1.11,20.36-.37l.66.15A11.13,11.13,0,0,0,379.43,14.19Z" fill="#525252"/></svg>