<svg xmlns="http://www.w3.org/2000/svg" width="106.47" height="56.92" viewBox="0 0 106.47 56.92"><title>Asset 1</title><path d="M106.34,44c-.51-14.13-.73-28.26-1.07-42.39C102-1.8,98.4,1.31,95,1.11c-8-.45-15.93.21-23.88.8C50.64,3.43,30.16,3.82,9.67,4.24c-7.42.15-10,2.44-9.64,10,.29,6.32.47,12.65.7,19,2.31,6.29.7,12.85,1.34,19.25.3,3.13,1.3,4.62,4.82,4.45,12.64-.58,25.25-1.39,37.92-1.24,17.15.2,34.3-.19,51.44-.58C106.89,54.84,106.73,54.63,106.34,44Zm-8.11,5.93a47.85,47.85,0,0,1-5.48.17c-25.16-1.66-50.25-.25-75.34,1.39-1,.07-2,.13-3,.13-6.7,0-6.34,0-6.94-6.75-.89-10-.47-20-1-29.94C6.2,9.63,8.31,8.45,13,8.33,28.49,7.94,44,7.2,59.42,6.6V5.36c11.65,0,23.3.15,34.94-.1,3.24-.07,4.41,1,4.88,4,2,12.57,1.13,25.26,1.68,37.88C101,49.08,100,49.82,98.23,49.91Z" fill="#4f4f4f"/></svg>