<svg xmlns="http://www.w3.org/2000/svg" width="359.14" height="19.8" viewBox="0 0 359.14 19.8"><title>Asset 2</title><path d="M10,13.71c27,0,53.94-1.27,80.9-1.77,22.48-.41,45-1.25,67.44-1.23,18.5,0,37-.77,55.48.29,22.61,1.3,45.24,1.74,67.86,2.62,13.48.52,26.91,1.64,40.37,2.52,10.93.71,21.61,4.24,32.73,2.82,2.5-.33,3.34-1.17,3.41.84l1-13.11c-.11,2.42-1.42,1.11-3.66.74C344.3,5.54,333,5.29,321.69,4.67c-16.09-.88-32.18-1.94-48.3-2.4-3.66-.1-7.26,1.08-10.94.39-8.06-1.5-16.21-1.38-24.37-1.45-7.26-.06-14.54,1.2-21.8-.73a10.32,10.32,0,0,0-9,1.83,2.87,2.87,0,0,1-3.27.55C199.09-.18,193.72,1,188.45.73c-14-.59-27.91-.94-41.87.31-3.61.32-7.11,1.7-10.84,1-7.43-1.36-14.9-1-22.37-.34-1.71,2.51-3.2.08-4.77-.18-8-.9-15.94.5-23.89.43C62.23,1.79,39.8,3.69,17.33,3.15,12.35,3,7.35,3,2.61,1.09,1.7.35,1.21,1,1.08,0L0,12.73c.22-1.13.67,1.39,1.82,1.17C6.21,13,2,13.69,10,13.71Z" fill="#525252"/></svg>