<svg xmlns="http://www.w3.org/2000/svg" width="387.5" height="415.31" viewBox="0 0 387.5 415.31"><title>left</title><path d="M1.65,50.4c2.07,8.4.66,17.06,1.91,25.52,2.31,15.58,2,31.28,1.6,46.94-.21,7.88,1.17,15.68.51,23.54v3c-3.55,4.37.51,8.65.15,13-.46,7,0,14.06-1.21,21-1,3.52.3,6.86,1.06,10.15,1.28,5.56-.83,10.83-.94,16.28-.13,6.79,1.33,13.52.9,20.13-.74,11.53.58,23,.07,34.53-.46,10.44-.4,21-.3,31.52.15,16.12.38,32.32-1.87,48.39,0,17.34.07,34.68-1,52-.09,3.69.92,7.47-.82,11v0c-1.49,3.78-.16,6.22,2.79,7.89l13.34-8.49a5.33,5.33,0,0,1-1.21-2.56c-1-5.19-.32-10.44-.48-15.66.62-15.28.31-30.56.13-45.85-.24-20.77-.44-41.54.11-62.32.2-15.67.15-31.34,0-47,.14-11.08-1.22-22.1-1.05-33.21.25-16.06.53-32.14-.22-48.21-.45-2.14-1.28-4.23-.66-6.46a3.09,3.09,0,0,0-.4-1.58,13.81,13.81,0,0,1,1-2.4l.1-26.61a14.05,14.05,0,0,1-.05-2.43c.05-1.28.06-2.55.07-3.82v-.25C15.33,94.2,13.48,80,14.13,65.73a20,20,0,0,0-.12-3A331.2,331.2,0,0,1,12.46,27c0-3.31,1.32-4.62,4.71-4.87,8.29-.61,16.57-1.13,24.89-1,2.47.05,5,.24,7.25-1.27.34-.38.72-.89.5-1.31h0l.22,0c3.79,2.68,8,1.71,12.1,1.3,23-2.34,46.15-3.5,69.25-4.57,23.28-1.08,46.6-1.34,69.89-1.87q36.47-.84,72.94-1.14c28.63-.26,57.25,1.45,85.88.57,6.51-.2,13.05,1,19.54-.21L387.5,0a9.32,9.32,0,0,0-3.21.49,27.23,27.23,0,0,1-6.39,1c-30.08.3-60.16.66-90.24.91-19.43.17-38.89-.39-58.29.47-15.86.71-31.72.68-47.57,1.22-8.11.27-16.29,1.2-24.33,1-11.08-.27-22.18.23-33.1,1-11.5.85-23,.34-34.57,1.86S66.41,9.91,54.69,10.47h0a49,49,0,0,0-12,.85l-3,.09a4.8,4.8,0,0,1-1.67.53,8.11,8.11,0,0,1,1.67-.53l-30,0a8.2,8.2,0,0,0-5-.08C.31,11.61-.12,14.76,0,18.06.5,28.85,1.1,39.62,1.65,50.4Z" fill="#525252"/></svg>