<svg xmlns="http://www.w3.org/2000/svg" width="387.04" height="428.95" viewBox="0 0 387.04 428.95"><title>right</title><path d="M289.09,419.42c14.43,1.1,28.89,1.75,43.23,3.79l.57.71c6.41,1.66,13,1.68,19.54,2.43,7.53.87,15,2,22.6,2.55,5,.37,6.49-1.26,6.57-6.16-.15-.17-.27-.34-.4-.51a1.06,1.06,0,0,0-.25-1.8c-1.49-1.72-.92-3.8-.93-5.74,0-30.47.05-60.95-.89-91.41-.46-15-.73-29.95-1.08-44.92a1.83,1.83,0,0,0,0-2.93l-.69-2h0c.06-2,.21-4,.17-6-1.13-57.72-1.73-115.43,2.86-173,.86-10.75.9-21.57,2.72-32.24a229.7,229.7,0,0,1,2.13-25.8c.52-8,.93-16.09,1.59-24.12.32-3.8.7-7.51-1.63-10.87A3,3,0,0,0,383,0L375.1,12.61c.27,0,.55-.09.82-.15s.44.1.66.15a10.52,10.52,0,0,0-1.68,1.55c.19,11.78-1.24,23.5-1.27,35.29A109.16,109.16,0,0,1,372,65.22c-.39,5.6-.24,11.24-1.54,16.78a20.63,20.63,0,0,0-.72,8.41c1.69,9.49-1.44,18.81-.88,28.24a23.53,23.53,0,0,1-.28,2.48l-1,17.11a9.17,9.17,0,0,1,0,1.16c-1,12.77-1,25.58-1.12,38.37-.29,27.13,0,54.26.44,81.39,1.09,3.39.64,6.87.79,10.33.32,7.7-1.56,15.54,1.45,23.07a3.76,3.76,0,0,0,.91,1c-2.61,1.6-2,4.25-1.94,6.77.05,8.64,1.48,17.23.91,25.9-.55,2.39-1,4.77-.16,7.19,1,2.68,1.86,5.37.79,8.24.11,9.67-1.19,19.35,0,29,.2,4.61-1.19,9.35.46,13.84a7.74,7.74,0,0,1-.49,1.16,165.4,165.4,0,0,0-1,25.36c.14,4.12-1.66,5.27-5.34,5.12-4.67-.2-9.24-1.51-13.83-1.71-10.8-.49-21.52-1.95-32.37-1.81-10.14.14-20.15-2.21-30.31-2.46-17.28-.41-34.5-1.94-51.79-2.41-13.29-.35-26.63-.51-39.9-.55-12.75-.05-25.59-.17-38.38.44-4.8.22-9.5-1.54-14.39-1-16.72,2-33.55,1.87-50.32,1.85-4.78,0-9.39,1.5-14.13.76a8.7,8.7,0,0,0-1.68-.3c-6.25.83-12.48-.2-18.71-.27-8.68-.11-17.34.9-26.06.15-3.23-.28-7-1.09-10,1.34l-.37.05c.1-.25.22-.48.32-.75-1.07-1.61-2.79-1.65-4.4-1.56a4.21,4.21,0,0,1-3.6-1.22L0,415.29c.4.22.82.43,1.27.63,2.86,1.26,5.74,2.4,8.94,2.28l-.07.34a2.63,2.63,0,0,0,1.87.19,2.73,2.73,0,0,1,.51-.47l2.4.07a3.37,3.37,0,0,0,2.17.53c2.17.15,4.38-.35,6.51.41l.27-.21.3.17c13.55-1.29,27.14-.66,40.71-1,3.26-1,6.62-.49,9.92-.58,33.65-.91,67.28-2.23,101-2.26C213.58,415.35,251.37,416.56,289.09,419.42ZM373,203.64Z" fill="#525252"/></svg>